Coordinates
version=1
nRows=42
nColumns=38
inDegrees=no

Units are S.I. units (second, meters, Newtons, ...)
If the header above contains a line with 'inDegrees', this indicates whether rotational values are in degrees (yes) or radians (no).

endheader
time	pelvis_tilt	pelvis_list	pelvis_rotation	pelvis_tx	pelvis_ty	pelvis_tz	hip_flexion_r	hip_adduction_r	hip_rotation_r	knee_angle_r	ankle_angle_r	subtalar_angle_r	mtp_angle_r	hip_flexion_l	hip_adduction_l	hip_rotation_l	knee_angle_l	ankle_angle_l	subtalar_angle_l	mtp_angle_l	lumbar_extension	lumbar_bending	lumbar_rotation	arm_flex_r	arm_add_r	arm_rot_r	elbow_flex_r	pro_sup_r	wrist_flex_r	wrist_dev_r	arm_flex_l	arm_add_l	arm_rot_l	elbow_flex_l	pro_sup_l	wrist_flex_l	wrist_dev_l
10	0.691262	1.36835	0.714388	0.656328	0.0555088	0.960567	0.167818	0.0802496	-0.158759	0.344186	0.180808	0	0	-0.0132161	-0.069435	-0.2447	0.00249646	0.132243	0	0	-0.231407	0.143852	0.246518	0.599649	-0.439116	0.41887	0.869486	1.32602	0	0	0.561953	-0.206227	0.479059	0.942826	1.16199	0	0
10.01	0.647883	1.36359	0.752278	0.655681	0.0559754	0.959723	0.188294	0.0764216	-0.15346	0.364915	0.18492	0	0	-0.00421958	-0.0656777	-0.246762	0.00215548	0.132676	0	0	-0.224396	0.140076	0.248999	0.595255	-0.442171	0.41774	0.877701	1.32646	0	0	0.55598	-0.210041	0.483221	0.954741	1.15368	0	0
10.02	0.602992	1.3585	0.791203	0.655068	0.0564386	0.958794	0.210894	0.0721833	-0.147091	0.388764	0.188786	0	0	0.00537239	-0.0614162	-0.249052	0.00203438	0.133255	0	0	-0.216654	0.135771	0.251468	0.590752	-0.444617	0.415253	0.885855	1.32935	0	0	0.549704	-0.214104	0.4873	0.966588	1.14447	0	0
10.03	0.557327	1.3531	0.83035	0.654526	0.0569574	0.957801	0.235445	0.0676666	-0.140016	0.415834	0.192148	0	0	0.0150704	-0.0567303	-0.252019	0.00163251	0.13389	0	0	-0.208218	0.130885	0.254481	0.584979	-0.446333	0.409599	0.894319	1.33791	0	0	0.543499	-0.21854	0.493005	0.979027	1.12495	0	0
10.04	0.521018	1.34869	0.860573	0.653956	0.057542	0.956972	0.258459	0.0636766	-0.132964	0.444041	0.194205	0	0	0.0221998	-0.0523558	-0.254709	0.00060502	0.134343	0	0	-0.202023	0.126592	0.257207	0.579688	-0.44869	0.406834	0.903763	1.33603	0	0	0.53718	-0.222072	0.49479	0.990442	1.12094	0	0
10.05	0.48929	1.34463	0.886502	0.653378	0.0581752	0.956223	0.281538	0.0600093	-0.12609	0.474156	0.195172	0	0	0.028238	-0.0481558	-0.257204	0	0.134623	0	0	-0.196837	0.122682	0.259984	0.574001	-0.45136	0.40443	0.914068	1.33164	0	0	0.531139	-0.225462	0.496475	1.00113	1.11681	0	0
10.06	0.462345	1.34117	0.908073	0.652784	0.058855	0.955574	0.304186	0.0568016	-0.119046	0.505315	0.194701	0	0	0.0331807	-0.0442035	-0.259689	0	0.134944	0	0	-0.192831	0.119191	0.262709	0.568029	-0.454207	0.401966	0.924849	1.32717	0	0	0.525438	-0.228691	0.498198	1.01125	1.11197	0	0
10.07	0.438792	1.33798	0.926695	0.65218	0.0595979	0.95498	0.326598	0.0541852	-0.111974	0.536944	0.192811	0	0	0.0375058	-0.0405459	-0.261955	0	0.135284	0	0	-0.189478	0.116207	0.265289	0.561817	-0.457122	0.398278	0.936104	1.32514	0	0	0.519584	-0.232019	0.499695	1.0218	1.10593	0	0
10.08	0.426512	1.33614	0.935631	0.651506	0.060464	0.954618	0.345733	0.0526012	-0.107466	0.567289	0.189348	0	0	0.0390775	-0.0380518	-0.262977	0	0.135663	0	0	-0.188934	0.114865	0.266875	0.555932	-0.460262	0.395256	0.947865	1.32035	0	0	0.513798	-0.235318	0.500532	1.03252	1.10091	0	0
10.09	0.413663	1.33405	0.945967	0.650858	0.0614037	0.954244	0.365294	0.0508211	-0.104603	0.597268	0.185356	0	0	0.0412155	-0.0355622	-0.26341	0	0.136074	0	0	-0.187857	0.113505	0.26846	0.547646	-0.462187	0.384337	0.959523	1.34529	0	0	0.508158	-0.238418	0.50169	1.04297	1.098	0	0
10.1	0.407063	1.33274	0.951851	0.650137	0.0624488	0.954002	0.382607	0.0491643	-0.104545	0.624838	0.180994	0	0	0.0420467	-0.0337708	-0.262816	0	0.136567	0	0	-0.18818	0.113139	0.268924	0.539114	-0.465287	0.376277	0.973272	1.3495	0	0	0.502913	-0.241435	0.503487	1.05293	1.09364	0	0
10.11	0.404308	1.33139	0.955555	0.649361	0.0635953	0.953825	0.398578	0.0476397	-0.107683	0.649724	0.177161	0	0	0.0425962	-0.0327782	-0.261249	0	0.137213	0	0	-0.188879	0.113729	0.268733	0.529036	-0.468451	0.365329	0.988172	1.35585	0	0	0.498286	-0.244126	0.506727	1.06187	1.0893	0	0
10.12	0.412444	1.33102	0.949875	0.648378	0.064788	0.953785	0.411035	0.0468051	-0.114128	0.670914	0.174455	0	0	0.0408289	-0.0332622	-0.259015	0	0.138344	0	0	-0.191114	0.117015	0.264302	0.523791	-0.469505	0.360865	0.997885	1.36078	0	0	0.491833	-0.248061	0.507303	1.07093	1.0861	0	0
10.13	0.417784	1.3294	0.94821	0.647484	0.0661255	0.953735	0.423478	0.0458537	-0.122469	0.68796	0.174033	0	0	0.0408425	-0.034159	-0.25639	0	0.139469	0	0	-0.192073	0.120401	0.261246	0.513961	-0.471319	0.351065	1.01066	1.36515	0	0	0.486731	-0.250669	0.510211	1.07825	1.08393	0	0
10.14	0.424677	1.32747	0.945805	0.646554	0.0675411	0.953718	0.434665	0.0450596	-0.132229	0.700884	0.175514	0	0	0.0409863	-0.0355301	-0.253373	0	0.140499	0	0	-0.192933	0.124599	0.257479	0.503936	-0.47307	0.341707	1.02303	1.36978	0	0	0.48096	-0.253227	0.512154	1.08613	1.08258	0	0
10.15	0.432561	1.32509	0.942786	0.645616	0.0690236	0.953716	0.444878	0.0446158	-0.142724	0.709568	0.177568	0	0	0.0413139	-0.0374132	-0.250019	0	0.141357	0	0	-0.19358	0.12946	0.253256	0.493564	-0.474546	0.332063	1.0354	1.37503	0	0	0.474024	-0.255633	0.512233	1.09494	1.08227	0	0
10.16	0.441965	1.3223	0.938379	0.6447	0.0705605	0.953736	0.454138	0.0447857	-0.153958	0.714	0.179047	0	0	0.0415998	-0.0399639	-0.246977	0	0.142288	0	0	-0.194195	0.134984	0.248679	0.483429	-0.476096	0.323703	1.04768	1.37971	0	0	0.465849	-0.257906	0.510663	1.10419	1.08336	0	0
10.17	0.451913	1.31919	0.933222	0.643835	0.0721436	0.953764	0.462854	0.0455914	-0.165174	0.715172	0.179849	0	0	0.0418804	-0.0429497	-0.2444	0	0.143311	0	0	-0.194762	0.140817	0.244031	0.473104	-0.477263	0.315082	1.06012	1.3847	0	0	0.456741	-0.26005	0.508229	1.11327	1.08553	0	0
10.18	0.461269	1.31587	0.928061	0.643045	0.0737821	0.953777	0.471294	0.0468806	-0.175585	0.713536	0.179855	0	0	0.0420716	-0.0460002	-0.242188	0	0.144192	0	0	-0.195242	0.146594	0.239826	0.46236	-0.478313	0.306286	1.07293	1.38948	0	0	0.447128	-0.261873	0.505524	1.12164	1.08866	0	0
10.19	0.468917	1.31232	0.923789	0.642358	0.0754747	0.953759	0.479862	0.0485879	-0.184793	0.709647	0.179106	0	0	0.042314	-0.0488658	-0.240402	0	0.145008	0	0	-0.195519	0.152093	0.236327	0.451248	-0.479667	0.298668	1.08592	1.39329	0	0	0.436799	-0.263294	0.50226	1.1299	1.09243	0	0
10.2	0.476194	1.30863	0.919004	0.641773	0.0772039	0.953735	0.488396	0.0510451	-0.1924	0.703811	0.178236	0	0	0.0424304	-0.051859	-0.23927	0	0.145766	0	0	-0.195913	0.157547	0.233229	0.440592	-0.480787	0.292229	1.09795	1.39731	0	0	0.4251	-0.264514	0.496944	1.13946	1.0977	0	0
10.21	0.482712	1.305	0.914209	0.641292	0.0789939	0.953711	0.496818	0.0540428	-0.198243	0.696624	0.177752	0	0	0.0423132	-0.0547551	-0.238626	0	0.146394	0	0	-0.196394	0.162676	0.230627	0.430376	-0.481865	0.286936	1.1087	1.40124	0	0	0.41237	-0.265642	0.489877	1.15057	1.10431	0	0
10.22	0.48929	1.30102	0.909049	0.640879	0.0808469	0.953655	0.505219	0.0575095	-0.203936	0.687779	0.177133	0	0	0.0425356	-0.0580889	-0.237899	0	0.147434	0	0	-0.196827	0.168012	0.2279	0.42021	-0.482715	0.281179	1.12	1.40558	0	0	0.398016	-0.266399	0.478632	1.16478	1.11363	0	0
10.23	0.495521	1.29718	0.903507	0.640595	0.0827498	0.953597	0.513333	0.0613115	-0.208934	0.677467	0.175958	0	0	0.042759	-0.0614756	-0.23763	0	0.148749	0	0	-0.197523	0.172969	0.226232	0.4097	-0.484035	0.275262	1.13262	1.40027	0	0	0.384831	-0.267377	0.470438	1.17951	1.10325	0	0
10.24	0.500702	1.29297	0.898525	0.640389	0.0847115	0.953515	0.521765	0.0655366	-0.213182	0.666319	0.174258	0	0	0.0435517	-0.0649982	-0.237423	0	0.150195	0	0	-0.198018	0.177914	0.224411	0.400144	-0.484464	0.267929	1.14463	1.40466	0	0	0.370713	-0.26674	0.457878	1.19237	1.11265	0	0
10.25	0.504764	1.28843	0.894214	0.640248	0.0867333	0.953408	0.530534	0.0699768	-0.216922	0.654537	0.17194	0	0	0.0447545	-0.0685638	-0.237149	0	0.15166	0	0	-0.198209	0.182816	0.222722	0.391634	-0.48473	0.261086	1.15604	1.40887	0	0	0.356833	-0.265464	0.446043	1.20372	1.12255	0	0
10.26	0.508021	1.28422	0.890124	0.640184	0.0888288	0.953325	0.539044	0.0742758	-0.220191	0.642234	0.169179	0	0	0.0459368	-0.0719071	-0.237558	0	0.153396	0	0	-0.198489	0.187302	0.221737	0.384525	-0.485483	0.25571	1.16567	1.41431	0	0	0.344357	-0.263967	0.436773	1.21334	1.12986	0	0
10.27	0.509985	1.27956	0.8868	0.640208	0.0910032	0.953209	0.547889	0.0789301	-0.223024	0.629117	0.165621	0	0	0.0478069	-0.0754771	-0.238631	0.00150585	0.155674	0	0	-0.198252	0.191794	0.221019	0.378136	-0.48645	0.251725	1.17516	1.42099	0	0	0.331412	-0.261846	0.425643	1.22348	1.1391	0	0
10.28	0.510901	1.2747	0.883985	0.640351	0.093256	0.953042	0.556868	0.0841697	-0.224587	0.615676	0.162307	0	0	0.0499897	-0.0791023	-0.240026	0.00418703	0.158174	0	0	-0.19753	0.196052	0.220722	0.372222	-0.487429	0.24843	1.1846	1.42763	0	0	0.318544	-0.259545	0.414068	1.23376	1.14887	0	0
10.29	0.511861	1.26936	0.88044	0.640563	0.0955667	0.952831	0.566056	0.0901337	-0.225315	0.602131	0.158599	0	0	0.0524362	-0.0831584	-0.242377	0.00714251	0.161065	0	0	-0.195967	0.201452	0.216006	0.373379	-0.486304	0.253863	1.18888	1.44205	0	0	0.299981	-0.257374	0.390534	1.24638	1.18566	0	0
10.3	0.512687	1.26474	0.876615	0.640874	0.0979782	0.952665	0.574313	0.0959976	-0.225663	0.588354	0.155683	0	0	0.0538031	-0.0867329	-0.245195	0.00948453	0.163583	0	0	-0.194601	0.206136	0.212415	0.374198	-0.486799	0.26214	1.19374	1.4434	0	0	0.28368	-0.256599	0.373813	1.25808	1.19585	0	0
10.31	0.511383	1.25973	0.875716	0.641215	0.100458	0.952481	0.582908	0.101264	-0.22641	0.573959	0.151759	0	0	0.0561664	-0.0901415	-0.247246	0.0122026	0.166196	0	0	-0.192587	0.210064	0.211815	0.369364	-0.489096	0.264411	1.20296	1.44289	0	0	0.271197	-0.255912	0.365091	1.26771	1.18504	0	0
10.32	0.508577	1.25458	0.875912	0.641663	0.103011	0.952265	0.591733	0.10638	-0.226976	0.559574	0.145698	0	0	0.0587852	-0.09339	-0.249694	0.015017	0.168927	0	0	-0.190076	0.213644	0.211313	0.364583	-0.491266	0.268071	1.2115	1.44602	0	0	0.257561	-0.254634	0.352246	1.27622	1.19738	0	0
10.33	0.505286	1.24936	0.876595	0.642214	0.105666	0.952007	0.600509	0.111256	-0.228236	0.545259	0.137218	0	0	0.0611989	-0.096553	-0.25147	0.0173927	0.171143	0	0	-0.18713	0.217049	0.211006	0.35889	-0.493424	0.272337	1.22024	1.44837	0	0	0.243503	-0.25344	0.337804	1.28381	1.22687	0	0
10.34	0.50177	1.24399	0.877932	0.6428	0.108381	0.951731	0.60912	0.115892	-0.230194	0.530705	0.127105	0	0	0.0637291	-0.0996688	-0.252565	0.0194562	0.172626	0	0	-0.183685	0.220522	0.211131	0.351379	-0.49573	0.275063	1.23011	1.4503	0	0	0.230203	-0.253572	0.327387	1.29194	1.23798	0	0
10.35	0.498074	1.23864	0.879788	0.643411	0.111159	0.951473	0.617146	0.120476	-0.231983	0.515448	0.116298	0	0	0.0663516	-0.102688	-0.253833	0.0215351	0.174224	0	0	-0.180047	0.223961	0.211307	0.34234	-0.497691	0.275617	1.24095	1.45394	0	0	0.216723	-0.253907	0.317191	1.30025	1.24933	0	0
10.36	0.494458	1.23361	0.882095	0.644033	0.114019	0.951221	0.624385	0.124605	-0.233976	0.499772	0.104713	0	0	0.0687774	-0.105537	-0.255457	0.0238198	0.176096	0	0	-0.176526	0.227231	0.211082	0.332221	-0.499335	0.27471	1.25244	1.45905	0	0	0.203167	-0.254505	0.307525	1.30863	1.26065	0	0
10.37	0.491076	1.22847	0.884498	0.644714	0.116968	0.950921	0.631023	0.128742	-0.236035	0.483508	0.0916804	0	0	0.0711628	-0.108577	-0.256518	0.0261184	0.177746	0	0	-0.172917	0.230651	0.21031	0.321256	-0.500207	0.272357	1.26448	1.46563	0	0	0.18875	-0.255224	0.297228	1.31782	1.27216	0	0
10.38	0.48767	1.22385	0.887456	0.645427	0.11998	0.950598	0.636874	0.132241	-0.238797	0.467572	0.077992	0	0	0.0731138	-0.111258	-0.257405	0.0283448	0.179506	0	0	-0.169477	0.233681	0.208978	0.310018	-0.500204	0.269257	1.27552	1.47071	0	0	0.174761	-0.256262	0.288409	1.32633	1.28	0	0
10.39	0.483963	1.21942	0.891213	0.646164	0.123045	0.950244	0.642181	0.135341	-0.241741	0.451646	0.0635817	0	0	0.075131	-0.113682	-0.258175	0.0307289	0.18134	0	0	-0.165874	0.236486	0.206822	0.299136	-0.499388	0.266095	1.28507	1.47494	0	0	0.160771	-0.257222	0.27999	1.33435	1.28689	0	0
10.4	0.480465	1.215	0.895318	0.64694	0.126177	0.949858	0.646971	0.138198	-0.245243	0.435354	0.0478844	0	0	0.0773036	-0.116134	-0.258544	0.0334633	0.183243	0	0	-0.162013	0.239307	0.203764	0.288673	-0.498219	0.263281	1.29382	1.47849	0	0	0.146602	-0.257881	0.27151	1.34226	1.29345	0	0
10.41	0.47676	1.21096	0.899792	0.647781	0.129397	0.949435	0.651319	0.140619	-0.248415	0.41997	0.0332893	0	0	0.0787476	-0.11818	-0.258447	0.0353602	0.185124	0	0	-0.158146	0.241657	0.200116	0.27856	-0.49688	0.260685	1.30261	1.48152	0	0	0.132238	-0.258301	0.26274	1.3503	1.29963	0	0
